<svg width="360" height="360" viewBox="0 0 360 360" fill="none" xmlns="http://www.w3.org/2000/svg">
<path fill-rule="evenodd" clip-rule="evenodd" d="M159.122 204.731C130.901 265.019 99.4053 320 57.8181 320L283.995 320C322.306 320 341 288.088 341 251.015C341 206.76 316.064 139.284 287.214 99.4392C273.299 80.2479 259.317 68 244.459 68C226.932 68 212.607 88.4522 198.641 117.429C191.351 132.405 184.061 148.921 176.597 165.831C176.182 166.772 175.766 167.715 175.349 168.658C169.126 182.754 149.685 182.906 143.297 168.884C124.845 128.379 112.517 101.316 92.4505 101.316C76.6665 101.316 58.8913 118.211 42.8012 145.897C25.5637 175.277 12 216.733 12 261.341C12 296.566 28.8887 319.999 57.8184 319.999C99.3949 319.999 130.9 265.018 159.122 204.731Z" fill="url(#paint0_linear_517_23016)"/>
<path d="M263.827 164.215C263.827 173.496 257.816 175.68 248.565 175.68C239.315 175.68 230.34 185 248.565 185C266.791 185 276.954 176.225 276.954 164.215C276.954 152.205 265.683 140.726 266.792 126.992C267.858 113.782 277.271 105.546 285.843 100.792C294.414 96.0374 291.544 87 282.791 87C274.038 87 252.847 107.057 252.847 126.992C252.847 146.927 263.827 154.934 263.827 164.215Z" fill="#0F285F"/>
<mask id="mask0_517_23016" style="mask-type:alpha" maskUnits="userSpaceOnUse" x="238" y="87" width="53" height="98">
<path d="M263.827 164.215C263.827 173.496 257.816 175.68 248.565 175.68C239.315 175.68 230.34 185 248.565 185C266.791 185 276.954 176.225 276.954 164.215C276.954 152.205 265.683 140.726 266.792 126.992C267.858 113.782 277.271 105.546 285.843 100.792C294.414 96.0374 291.544 87 282.791 87C274.038 87 252.847 107.057 252.847 126.992C252.847 146.927 263.827 154.934 263.827 164.215Z" fill="#0F285F"/>
</mask>
<g mask="url(#mask0_517_23016)">
<path d="M289.073 100.273C280.122 104.073 266.03 90.5029 260.102 83.2428L303.544 86.2328C302.45 89.3296 298.025 96.4732 289.073 100.273Z" fill="#96BEFF"/>
</g>
<path d="M186.042 63.2246C181.217 59.3318 158.701 40.0412 122.355 63.2246C110.842 70.5679 98.3081 85.9453 101.476 112.118C98.3081 134.642 94.0944 144.81 96.9441 160.759C98.0999 167.228 97.0276 169.538 102.699 178H254C254 163.686 235.684 154.904 216.017 141.79C206.367 76.4263 190.852 67.1053 186.042 63.2246Z" fill="#0F285F"/>
<path d="M139 40C131.122 41.0419 121.235 60.2096 117 69C125.576 63.4653 144 63.0394 144 56C144 51.6361 143.765 39.3698 139 40Z" fill="#0F285F"/>
<path d="M207 52C198.883 53.0419 191.254 58.6969 178 61C184.142 64.3063 198 76.5687 198 79C198 87.8306 217.146 50.6976 207 52Z" fill="#0F285F"/>
<path d="M132.42 95.6512C134.575 99.9585 140.121 97.3895 141.636 93.285C140.121 97.3895 142.081 101.536 148.87 99.2282" stroke="#D7E6FF" stroke-linecap="round"/>
<path d="M134.419 87.2524C131.737 86.7697 126.916 91.1141 121.615 87.4672C117.383 83.8062 121.259 77.3765 126.527 73.0148C131.795 68.6531 136.727 68.0864 140.102 72.1622C142.911 76.3642 134.466 84.5731 134.419 87.2524Z" fill="white"/>
<path d="M167.562 93.2009C162.669 95.4792 155.933 92.9445 152.207 90.3347C153.344 87.1019 152.465 81.0335 157.757 76.6525C163.048 72.2715 169.993 72.6146 173.377 76.7028C177.773 83.031 173.543 90.4163 167.562 93.2009Z" fill="white"/>
<path d="M132.077 78.1497C130.295 80.1446 128.513 81.8361 127.183 80.6476C125.853 79.459 126.22 76.8784 128.003 74.8835C129.786 72.8886 132.309 72.235 133.639 73.4235C134.969 74.612 133.86 76.1548 132.077 78.1497Z" fill="#0F285F"/>
<path d="M163.307 82.4572C161.524 84.4521 159.743 86.1436 158.413 84.9551C157.083 83.7665 157.45 81.1859 159.233 79.191C161.016 77.1961 163.539 76.5424 164.869 77.731C166.199 78.9195 165.09 80.4623 163.307 82.4572Z" fill="#0F285F"/>
<path d="M137.172 44.0541C138.293 45.3856 138.518 51.1879 137.172 51.6925C135.489 52.3234 131.285 50.0107 132.336 54.2155" stroke="white" stroke-linecap="round"/>
<path d="M202.023 57.7524C200.291 58.4616 196.275 63.9695 196.961 65.1563C197.818 66.6398 202.538 66.5772 198.954 70.1081" stroke="white" stroke-linecap="round"/>
<path d="M143.798 92.7173C142.627 94.2953 140.121 93.4867 140.093 91.5216L140.081 90.6466C140.078 90.4738 140.054 90.302 140.008 90.1353L139.657 88.5004C139.223 86.9091 140.526 85.7273 142.086 86.2619L145.664 86.9948C147.262 87.5425 147.553 89.6774 146.16 90.6335L144.781 91.5799C144.594 91.7084 144.43 91.867 144.294 92.0493L143.798 92.7173Z" fill="#FD8489"/>
<path d="M87 180H102H114C114.513 175.667 112.664 167 102 167C91.3355 167 87.5982 175.667 87 180Z" fill="#96BEFF"/>
<path d="M97.1583 172.517C94.4273 173.706 93.2104 176.925 93.2104 178.379" stroke="#0F285F" stroke-linecap="round"/>
<path d="M104.65 172.517C101.653 173.878 100.317 177.565 100.317 179.229" stroke="#0F285F" stroke-linecap="round"/>
<path opacity="0.8" d="M123.74 128.737C131.887 115.306 134.537 121.085 136.682 126.678C139.329 120.989 145.86 114.344 152.326 128.739C158.792 143.133 164.765 167.782 136.684 167.78C108.603 167.778 115.99 141.513 123.74 128.737Z" fill="url(#paint1_linear_517_23016)"/>
<path d="M152 180H136H124C123.468 175.667 124.941 167 136 167C147.059 167 151.38 175.667 152 180Z" fill="#96BEFF"/>
<path d="M132.695 172.517C129.964 173.706 128.747 176.925 128.747 178.379" stroke="#0F285F" stroke-linecap="round"/>
<path d="M140.187 172.517C137.19 173.878 135.854 177.565 135.854 179.229" stroke="#0F285F" stroke-linecap="round"/>
<rect x="167.281" y="266.389" width="38.1801" height="26.3019" rx="5" fill="white"/>
<path d="M133.751 184.249C135.556 181.594 133.654 178 130.443 178H75.1172C73.7928 178 72.5542 178.656 71.8095 179.751L43.2495 221.751C41.4437 224.406 43.3458 228 46.5572 228H101.883C103.207 228 104.446 227.344 105.191 226.249L133.751 184.249Z" fill="#FEABAE"/>
<path d="M71 182C71 179.791 72.7909 178 75 178H274C279.523 178 284 182.477 284 188V310C284 315.523 279.523 320 274 320H81C75.4772 320 71 315.523 71 310V182Z" fill="#FFBABD"/>
<path d="M232 178H274C280.075 178 285 182.925 285 189V309C285 315.075 280.075 320 274 320H233C232.448 320 232 319.552 232 319V178Z" fill="#FD8489"/>
<path d="M232 178H281.27C282.374 178 283.429 178.456 284.185 179.26L323.665 221.26C326.065 223.814 324.255 228 320.75 228H280.73C279.626 228 278.571 227.544 277.815 226.74L232 178Z" fill="#FEABAE"/>
<rect x="167" y="267" width="38" height="26" rx="5" fill="white"/>
<defs>
<linearGradient id="paint0_linear_517_23016" x1="325.555" y1="274.094" x2="51.4801" y2="-46.9547" gradientUnits="userSpaceOnUse">
<stop stop-color="#DFF0FE" stop-opacity="0.92"/>
<stop offset="1" stop-color="#DFF0FE" stop-opacity="0"/>
</linearGradient>
<linearGradient id="paint1_linear_517_23016" x1="133.933" y1="163.59" x2="142.335" y2="95.872" gradientUnits="userSpaceOnUse">
<stop stop-color="#2855AF"/>
<stop offset="1" stop-color="#2855AF" stop-opacity="0"/>
</linearGradient>
</defs>
</svg>
