<svg width="360" height="360" viewBox="0 0 360 360" fill="none" xmlns="http://www.w3.org/2000/svg">
<path fill-rule="evenodd" clip-rule="evenodd" d="M42.3552 309.254C42.8111 309.333 42.7931 310 42.3305 310L51.1813 310C51.2255 310 51.2697 310 51.314 310C51.3555 310 51.397 310 51.4385 310L296.053 310C339.03 310 360 271.25 360 226.233C360 172.494 332.027 90.5587 299.663 42.1761C284.053 18.8724 268.369 3.99991 251.702 3.99991C232.04 3.99991 215.97 28.8347 200.304 64.0212C192.126 82.2054 183.948 102.261 175.575 122.794C169.342 138.081 163.002 153.631 156.473 168.871C155.854 170.305 153.835 170.335 153.174 168.92C149.688 161.454 146.42 154.286 143.314 147.472C123.454 103.907 110.185 74.8008 88.5881 74.8008C71.6 74.8008 52.4687 92.9717 35.1511 122.749C16.5985 154.347 2 198.934 2 246.912C2 281.003 16.7191 304.825 42.3552 309.254Z" fill="url(#paint0_linear_17_519)"/>
<path d="M85.6604 203.387C89.847 206.375 89.8883 220.207 89.6716 226.432C86.4329 220.709 72.4569 221.102 74.5675 217.151C75.8759 214.702 83.1282 201.579 85.6604 203.387Z" fill="#0F285F"/>
<path d="M43.6376 205.482C46.8931 209.466 48.0603 215.295 53.1163 222.074C48.8834 220.929 37.5504 220.635 36.4998 221.745C32.684 225.776 39.5681 200.503 43.6376 205.482Z" fill="#0F285F"/>
<rect x="107" y="125" width="238" height="185" rx="10" fill="#2855AF"/>
<rect x="107" y="125" width="49" height="185" rx="10" fill="#143782"/>
<path d="M26.0323 250.04H162.307V307.5C162.307 309.157 160.963 310.5 159.307 310.5H29.0323C27.3754 310.5 26.0323 309.157 26.0323 307.5V250.04Z" fill="#FD8489"/>
<path d="M122 250.04H162.307V306.5C162.307 308.709 160.516 310.5 158.307 310.5H122V250.04Z" fill="#FFBABD"/>
<path d="M5.14728 219.583C4.23712 218.255 5.18739 216.451 6.79668 216.451H98.3092C99.3193 216.451 100.262 216.96 100.816 217.804L122 250.04H26.0346L5.14728 219.583Z" fill="#FFBABD"/>
<path d="M144.139 217.755C144.698 216.939 145.624 216.452 146.613 216.452H181.107C182.708 216.452 183.66 218.238 182.768 219.566L162.307 250.04H122L144.139 217.755Z" fill="#FFE6E6"/>
<path d="M243 125H268V202L256 195L243 202V125Z" fill="#3C78E6"/>
<rect x="268.428" y="270.194" width="65.2581" height="29.75" rx="3" fill="#96BEFF"/>
<line x1="307.855" y1="248.04" x2="331.686" y2="248.04" stroke="#96BEFF" stroke-width="4" stroke-linecap="round"/>
<line x1="307.855" y1="256.677" x2="331.686" y2="256.677" stroke="#96BEFF" stroke-width="4" stroke-linecap="round"/>
<path d="M90.5 302C90.5 302.276 90.7239 302.5 91 302.5C91.2761 302.5 91.5 302.276 91.5 302H90.5ZM91.3536 278.646C91.1583 278.451 90.8417 278.451 90.6464 278.646L87.4645 281.828C87.2692 282.024 87.2692 282.34 87.4645 282.536C87.6597 282.731 87.9763 282.731 88.1716 282.536L91 279.707L93.8284 282.536C94.0237 282.731 94.3403 282.731 94.5355 282.536C94.7308 282.34 94.7308 282.024 94.5355 281.828L91.3536 278.646ZM91.5 302V279H90.5V302H91.5Z" fill="#143782"/>
<path d="M103.5 302C103.5 302.276 103.724 302.5 104 302.5C104.276 302.5 104.5 302.276 104.5 302H103.5ZM104.354 278.646C104.158 278.451 103.842 278.451 103.646 278.646L100.464 281.828C100.269 282.024 100.269 282.34 100.464 282.536C100.66 282.731 100.976 282.731 101.172 282.536L104 279.707L106.828 282.536C107.024 282.731 107.34 282.731 107.536 282.536C107.731 282.34 107.731 282.024 107.536 281.828L104.354 278.646ZM104.5 302V279H103.5V302H104.5Z" fill="#143782"/>
<path d="M133 60C133 59.4477 133.448 59 134 59H197C197.552 59 198 59.4477 198 60V125H136C134.343 125 133 123.657 133 122V60Z" fill="#6E9BFF"/>
<path d="M198 60C198 59.4477 198.448 59 199 59H213C213.552 59 214 59.4477 214 60V122C214 123.657 212.657 125 211 125H198V60Z" fill="#3C78E6"/>
<path d="M131.493 60.1967C131.812 59.4696 132.531 59 133.325 59H199.124L191.274 75.8448C190.945 76.5495 190.238 77 189.461 77H127.185C125.742 77 124.773 75.5182 125.353 74.1967L131.493 60.1967Z" fill="#2855AF"/>
<path d="M198.124 59H216.219C216.598 59 216.944 59.214 217.114 59.5528L225.231 75.7867C225.563 76.4516 225.08 77.2339 224.336 77.2339H207.394C207.007 77.2339 206.655 77.0112 206.49 76.662L198.124 59Z" fill="#2855AF"/>
<rect x="137.911" y="103.209" width="23.0323" height="15.3549" rx="1" fill="#96BEFF"/>
<defs>
<linearGradient id="paint0_linear_17_519" x1="343.377" y1="243.144" x2="48.6348" y2="-102.36" gradientUnits="userSpaceOnUse">
<stop stop-color="#DFF0FE" stop-opacity="0.92"/>
<stop offset="1" stop-color="#DFF0FE" stop-opacity="0"/>
</linearGradient>
</defs>
</svg>
